name C:\Users\u0101727\Documents\MyRepositories\upper-imu-dc\Results\main_tracking\Case_23\kinematics.mot
datacolumns 10
datarows 56
range 0.50000000 1.05000000
endheader 
time	clav_prot	clav_elev	scapula_abduction	scapula_elevation	scapula_upward_rot	scapula_winging	plane_elv	shoulder_elv	axial_rot	
          0.50000000	        -17.67235424	         -3.27139775	         -3.07689791	         -3.51238796	         14.97925876	          4.03930561	        -18.79198894	         15.05296131	         36.81704225	
          0.51000000	        -17.69490277	         -3.30637341	         -3.11477774	         -3.48788465	         14.86880593	          4.05635318	        -18.83615121	         14.91077409	         37.00671889	
          0.52000000	        -17.63823315	         -3.28270469	         -3.04531052	         -3.45646526	         14.82781767	          4.04956852	        -18.87019147	         14.84252088	         37.20095767	
          0.53000000	        -17.59277492	         -3.24506365	         -2.97362951	         -3.42590733	         14.82919965	          4.02998759	        -18.89941413	         14.83535820	         37.39111372	
          0.54000000	        -17.55247021	         -3.20045592	         -2.89673852	         -3.39720714	         14.85729358	          4.00251847	        -18.92421293	         14.87468805	         37.55762412	
          0.55000000	        -17.51653910	         -3.15364836	         -2.81772677	         -3.37151954	         14.90267645	          3.97080087	        -18.94245196	         14.94981109	         37.67505611	
          0.56000000	        -17.49082350	         -3.10875697	         -2.74797027	         -3.35135130	         14.96182903	          3.93802924	        -18.95070876	         15.05154818	         37.71972856	
          0.57000000	        -17.48924499	         -3.07008021	         -2.70922651	         -3.34137939	         15.03758603	          3.90736255	        -18.94608386	         15.16941808	         37.67668566	
          0.58000000	        -17.53516941	         -3.04274134	         -2.73552769	         -3.34913894	         15.13967578	          3.88216938	        -18.92815709	         15.28927812	         37.54333060	
          0.59000000	        -17.66214815	         -3.03301446	         -2.87435115	         -3.38528645	         15.28465809	          3.86602177	        -18.90051952	         15.39197099	         37.32905087	
          0.60000000	        -17.91312945	         -3.04785716	         -3.18612638	         -3.46278323	         15.49426878	          3.86217115	        -18.87147756	         15.45362099	         37.05211701	
          0.61000000	        -18.33703341	         -3.09289730	         -3.74108285	         -3.59404319	         15.79082551	          3.87219401	        -18.85368258	         15.44850014	         36.73580728	
          0.62000000	        -18.98078268	         -3.16795376	         -4.61179980	         -3.78469317	         16.18736376	          3.89375912	        -18.86180093	         15.35635498	         36.40518945	
          0.63000000	        -19.87582991	         -3.25970739	         -5.86178374	         -4.02307212	         16.67006234	          3.91850008	        -18.90527394	         15.17629514	         36.08509330	
          0.64000000	        -20.99864391	         -3.33263788	         -7.50099916	         -4.26284998	         17.16314091	          3.93297479	        -18.96637882	         14.95600029	         35.80218925	
          0.65000000	        -21.71339452	         -3.37368102	         -8.54081979	         -4.41189339	         17.47672185	          3.92136360	        -18.93634186	         14.83384513	         35.57354332	
          0.66000000	        -21.70030095	         -3.39009402	         -8.49099950	         -4.43249237	         17.51316378	          3.91653907	        -18.76632319	         14.88045096	         35.42021144	
          0.67000000	        -21.40109334	         -3.36867002	         -8.04120380	         -4.37321972	         17.40776096	          3.91516210	        -18.62577788	         15.01000479	         35.35244471	
          0.68000000	        -21.05670667	         -3.30894106	         -7.57679855	         -4.26070909	         17.21397065	          3.91774358	        -18.53045611	         15.19305593	         35.36464942	
          0.69000000	        -20.46358054	         -3.24106488	         -6.74998132	         -4.09962179	         16.90497264	          3.91924503	        -18.39186418	         15.45603900	         35.44672478	
          0.70000000	        -19.87572476	         -3.18093770	         -5.90825347	         -3.95257023	         16.62692783	          3.90594864	        -18.26424710	         15.69025965	         35.59575498	
          0.71000000	        -19.66104317	         -3.15947072	         -5.59291896	         -3.90219571	         16.53695756	          3.89581812	        -18.20817009	         15.77925720	         35.79769195	
          0.72000000	        -19.85604427	         -3.18908029	         -5.84165870	         -3.96981662	         16.67558769	          3.89350971	        -18.22872316	         15.69370907	         36.03722210	
          0.73000000	        -20.39467170	         -3.24692078	         -6.57696224	         -4.12063527	         16.98721974	          3.89283997	        -18.30461004	         15.47429255	         36.30217210	
          0.74000000	        -21.00357105	         -3.28348106	         -7.43635627	         -4.25986593	         17.30106128	          3.88314981	        -18.36101774	         15.25037010	         36.58024211	
          0.75000000	        -21.13390259	         -3.29060143	         -7.59986204	         -4.29711089	         17.40061357	          3.87125823	        -18.28389116	         15.19242818	         36.84583659	
          0.76000000	        -21.03839153	         -3.27761173	         -7.43234401	         -4.28351436	         17.40732571	          3.85741200	        -18.15026653	         15.20137855	         37.08178198	
          0.77000000	        -21.11356301	         -3.26517180	         -7.53603352	         -4.29041594	         17.45647936	          3.84747725	        -18.06661166	         15.17790616	         37.26698521	
          0.78000000	        -21.37334147	         -3.26855564	         -7.90415700	         -4.34071095	         17.59093796	          3.83525235	        -18.06901726	         15.08223492	         37.39676523	
          0.79000000	        -21.61640666	         -3.27581616	         -8.25901317	         -4.38622555	         17.69759960	          3.82811919	        -18.08404223	         15.00018864	         37.47544688	
          0.80000000	        -21.65506931	         -3.29415689	         -8.31224347	         -4.40597437	         17.71250746	          3.83278149	        -18.08474090	         14.98305094	         37.51342844	
          0.81000000	        -21.95571350	         -3.32463854	         -8.77968203	         -4.46509030	         17.78887828	          3.84207709	        -18.18868994	         14.90519126	         37.53163925	
          0.82000000	        -23.24365287	         -3.29751907	        -10.95527144	         -4.54678896	         17.89430618	          3.85579579	        -18.36430887	         14.78183197	         37.53812589	
          0.83000000	        -23.50091818	         -3.31425758	        -11.42521082	         -4.56372400	         17.84742362	          3.87661690	        -18.45752096	         14.74382514	         37.54157514	
          0.84000000	        -21.49991929	         -3.43502601	         -8.11412056	         -4.46137571	         17.53931073	          3.91038921	        -18.31630453	         14.86422525	         37.53528695	
          0.85000000	        -20.62854927	         -3.40345801	         -6.91691458	         -4.26383182	         17.03388545	          3.95319149	        -18.01694451	         15.10719919	         37.51270996	
          0.86000000	        -19.89041198	         -3.31471111	         -5.96241119	         -4.02955810	         16.52567710	          3.97373694	        -17.79098875	         15.35162439	         37.47087801	
          0.87000000	        -19.48532118	         -3.22249887	         -5.49053766	         -3.85001800	         16.17600187	          3.98408910	        -17.68495562	         15.49403344	         37.39675218	
          0.88000000	        -19.47331255	         -3.16827528	         -5.55602678	         -3.77823110	         16.05705354	          3.99719802	        -17.67893479	         15.49000279	         37.28409905	
          0.89000000	        -19.84385323	         -3.15466204	         -6.14420065	         -3.81465488	         16.16326687	          4.01336663	        -17.74201293	         15.34631750	         37.13155245	
          0.90000000	        -20.49399095	         -3.15025307	         -7.13184614	         -3.90913758	         16.41053891	          4.02153093	        -17.83081437	         15.12259509	         36.94078328	
          0.91000000	        -21.04582100	         -3.10325714	         -7.99142453	         -3.95196782	         16.60056985	          4.01036902	        -17.84845232	         14.96387873	         36.71669093	
          0.92000000	        -20.75172753	         -3.01992245	         -7.57294605	         -3.84234411	         16.48127613	          3.98996637	        -17.64604637	         15.06061929	         36.44754467	
          0.93000000	        -20.23660186	         -2.86566681	         -6.88325298	         -3.62663255	         16.20250072	          3.96498105	        -17.28053496	         15.28075954	         36.12802863	
          0.94000000	        -19.92389264	         -2.67895085	         -6.51160790	         -3.41522725	         15.99448657	          3.93110350	        -16.87812920	         15.43968347	         35.75160657	
          0.95000000	        -19.94185314	         -2.48398869	         -6.62414830	         -3.25610718	         15.94675191	          3.89240317	        -16.46695001	         15.46594008	         35.31479141	
          0.96000000	        -20.23271580	         -2.27260616	         -7.13332917	         -3.13579502	         16.04204503	          3.84322263	        -16.02860151	         15.36638575	         34.82883212	
          0.97000000	        -20.51224416	         -2.00518600	         -7.63143093	         -2.97564313	         16.14940570	          3.77328047	        -15.49897134	         15.23221345	         34.31378824	
          0.98000000	        -20.04895776	         -1.69692215	         -6.95527903	         -2.69507898	         16.06522240	          3.67025227	        -14.80261407	         15.21260637	         33.78996281	
          0.99000000	        -19.53500631	         -1.27612106	         -6.32630925	         -2.28276508	         15.80882544	          3.57984000	        -14.03283180	         15.30563278	         33.28110299	
          1.00000000	        -18.94036840	         -0.77893405	         -5.59238785	         -1.80127960	         15.52497729	          3.47099368	        -13.25478554	         15.40531913	         32.80390799	
          1.01000000	        -18.41646212	         -0.24721483	         -4.95565704	         -1.31334002	         15.30240887	          3.35141536	        -12.50135703	         15.45545582	         32.36453486	
          1.02000000	        -18.00271669	          0.29055581	         -4.45728222	         -0.85231973	         15.17810348	          3.22618362	        -11.78530104	         15.43878529	         31.96582415	
          1.03000000	        -17.69606352	          0.81742897	         -4.08412942	         -0.43289741	         15.15915187	          3.09784095	        -11.11095509	         15.35891653	         31.60587758	
          1.04000000	        -17.47835627	          1.32513424	         -3.80708360	         -0.05836635	         15.23740661	          2.96711955	        -10.47841253	         15.22833435	         31.28039129	
          1.05000000	        -17.32861168	          1.81119524	         -3.59645341	          0.27412212	         15.39888003	          2.83385336	         -9.88541692	         15.06121782	         30.98602415	
